<?xml version="1.0" encoding="iso-8859-1"?>
<!-- Generator: Adobe Illustrator 19.0.0, SVG Export Plug-In . SVG Version: 6.00 Build 0)  -->
<svg version="1.1" id="Layer_1" xmlns="http://www.w3.org/2000/svg" xmlns:xlink="http://www.w3.org/1999/xlink" x="0px" y="0px"
	 viewBox="0 0 512 512" style="enable-background:new 0 0 512 512;" xml:space="preserve">
<path style="fill:#E9EDF1;" d="M451.952,434.236H60.048C27.024,434.236,0,407.212,0,374.188V69.644
	C0,36.612,27.024,9.596,60.048,9.596h391.896C484.976,9.588,512,36.612,512,69.644v304.544
	C512,407.212,484.976,434.236,451.952,434.236z"/>
<path d="M512,104.1V69.644c0-33.032-27.024-60.048-60.048-60.048H60.048C27.024,9.588,0,36.612,0,69.644V104.1
	C0,104.1,512,104.1,512,104.1z"/>
<circle style="fill:#E9EDF1;" cx="58.4" cy="56.844" r="13.424"/>
<circle style="fill:#FF9900;" cx="96.64" cy="56.844" r="13.424"/>
<circle style="fill:#30D1E2;" cx="134.904" cy="56.844" r="13.424"/>
<g>
	<rect x="429.392" y="53.084" style="fill:#FFFFFF;" width="30.4" height="6.824"/>
	<polygon style="fill:#FFFFFF;" points="450.88,76.996 445.728,72.516 459.384,56.844 445.728,41.172 450.88,36.692 468.448,56.844 
			"/>
	<path style="fill:#FFFFFF;" d="M379.264,78.212H208.336c-11.752,0-21.368-9.616-21.368-21.368l0,0
		c0-11.752,9.616-21.368,21.368-21.368h170.928c11.752,0,21.368,9.616,21.368,21.368l0,0
		C400.632,68.596,391.016,78.212,379.264,78.212z"/>
</g>
<path d="M212.664,67.068l-4.704-19.24h3.744l1.824,8.736c0.48,2.344,0.936,4.8,1.256,6.704h0.056c0.32-2.024,0.856-4.304,1.4-6.736
	l2.08-8.704H222l1.92,8.856c0.48,2.28,0.88,4.424,1.16,6.504h0.064c0.336-2.12,0.8-4.304,1.304-6.656l2-8.704h3.576l-5.176,19.24
	h-3.76l-2-9.056c-0.496-2.184-0.824-4.016-1.056-6.104h-0.064c-0.336,2.056-0.704,3.92-1.28,6.104l-2.224,9.056H212.664z"/>
<path d="M237.72,67.068l-4.704-19.24h3.744l1.824,8.736c0.48,2.344,0.936,4.8,1.256,6.704h0.056c0.32-2.024,0.856-4.304,1.4-6.736
	l2.08-8.704h3.68l1.92,8.856c0.48,2.28,0.88,4.424,1.16,6.504h0.064c0.336-2.12,0.8-4.304,1.304-6.656l2-8.704h3.576l-5.176,19.24
	h-3.76l-2-9.056c-0.496-2.184-0.824-4.016-1.056-6.104h-0.064c-0.336,2.056-0.704,3.92-1.28,6.104l-2.224,9.056H237.72z"/>
<path d="M262.776,67.068l-4.704-19.24h3.744l1.824,8.736c0.48,2.344,0.936,4.8,1.256,6.704h0.056c0.32-2.024,0.856-4.304,1.4-6.736
	l2.08-8.704h3.68l1.92,8.856c0.48,2.28,0.88,4.424,1.16,6.504h0.064c0.336-2.12,0.8-4.304,1.304-6.656l2-8.704h3.576l-5.176,19.24
	h-3.76l-2-9.056c-0.496-2.184-0.824-4.016-1.056-6.104h-0.064c-0.336,2.056-0.704,3.92-1.28,6.104l-2.224,9.056H262.776z"/>
<path d="M282.064,65.124c0-1.304,0.92-2.256,2.176-2.256c1.28,0,2.176,0.92,2.176,2.256c0,1.296-0.864,2.264-2.176,2.264
	C282.96,67.388,282.064,66.412,282.064,65.124z"/>
<polygon style="fill:#FF9900;" points="206.968,437.332 206.968,182.028 91.904,234.78 91.904,502.404 "/>
<polygon style="fill:#FFB600;" points="314.496,243.596 314.496,497.068 206.968,437.332 206.968,182.028 "/>
<polygon style="fill:#FF9900;" points="420.368,175.404 314.496,243.596 314.496,497.068 420.368,434.212 "/>
<g>
</g>
<g>
</g>
<g>
</g>
<g>
</g>
<g>
</g>
<g>
</g>
<g>
</g>
<g>
</g>
<g>
</g>
<g>
</g>
<g>
</g>
<g>
</g>
<g>
</g>
<g>
</g>
<g>
</g>
</svg>
